<svg width="180" height="168" viewBox="0 0 180 168" fill="none" xmlns="http://www.w3.org/2000/svg">
<rect width="180" height="168" fill="#F36C3D"/>
<rect x="54" y="40" width="72" height="8" fill="white"/>
<rect x="54" y="80" width="72" height="8" fill="white"/>
<rect x="54" y="120" width="72" height="8" fill="white"/>
<rect x="90" y="100" width="48" height="8" fill="white"/>
<rect x="42" y="60" width="48" height="8" fill="white"/>
<rect x="42" y="20" width="48" height="8" fill="white" fill-opacity="0.2"/>
<rect x="90" width="48" height="8" fill="white" fill-opacity="0.2"/>
<rect x="90" y="140" width="48" height="8" fill="white" fill-opacity="0.2"/>
<rect x="42" y="160" width="48" height="8" fill="white" fill-opacity="0.2"/>
<rect x="150" y="100" width="30" height="8" fill="white" fill-opacity="0.2"/>
<rect x="150" y="140" width="30" height="8" fill="white" fill-opacity="0.2"/>
<rect x="150" width="30" height="8" fill="white" fill-opacity="0.2"/>
<rect x="102" y="60" width="78" height="8" fill="white" fill-opacity="0.2"/>
<rect x="102" y="20" width="78" height="8" fill="white" fill-opacity="0.2"/>
<rect x="102" y="160" width="78" height="8" fill="white" fill-opacity="0.2"/>
<rect y="60" width="30" height="8" fill="white" fill-opacity="0.2"/>
<rect y="160" width="30" height="8" fill="white" fill-opacity="0.2"/>
<rect y="20" width="30" height="8" fill="white" fill-opacity="0.2"/>
<rect x="138" y="80" width="42" height="8" fill="white" fill-opacity="0.2"/>
<rect y="80" width="42" height="8" fill="white" fill-opacity="0.2"/>
<rect x="138" y="40" width="42" height="8" fill="white" fill-opacity="0.2"/>
<rect y="40" width="42" height="8" fill="white" fill-opacity="0.2"/>
<rect x="138" y="120" width="42" height="8" fill="white" fill-opacity="0.2"/>
<rect y="120" width="42" height="8" fill="white" fill-opacity="0.2"/>
<rect y="100" width="78" height="8" fill="white" fill-opacity="0.2"/>
<rect y="140" width="78" height="8" fill="white" fill-opacity="0.2"/>
<rect width="78" height="8" fill="white" fill-opacity="0.2"/>
</svg>
