<svg width="225" height="60" viewBox="0 0 225 60" fill="none" xmlns="http://www.w3.org/2000/svg">
<g id="sidebar-webring-banner">
<rect id="Rectangle 3" width="225" height="60" fill="#F58964"/>
<g id="logo">
<mask id="mask0" mask-type="alpha" maskUnits="userSpaceOnUse" x="0" y="0" width="60" height="60">
<rect id="Rectangle 1" width="60" height="60" fill="#C4C4C4"/>
</mask>
<g mask="url(#mask0)">
<rect id="Rectangle 2" width="60" height="60" fill="#F36C3D"/>
<g id="bg">
<rect id="Rectangle" x="14" y="8.66669" width="16" height="2.66667" fill="white" fill-opacity="0.2"/>
<rect id="Rectangle_2" x="30" y="2" width="16" height="2.66667" fill="white" fill-opacity="0.2"/>
<rect id="Rectangle_3" x="30" y="48.6667" width="16" height="2.66667" fill="white" fill-opacity="0.2"/>
<rect id="Rectangle_4" x="14" y="55.3333" width="16" height="2.66667" fill="white" fill-opacity="0.2"/>
<rect id="Rectangle_5" x="50" y="35.3333" width="10" height="2.66667" fill="white" fill-opacity="0.2"/>
<rect id="Rectangle_6" x="52.6667" y="48.6667" width="10" height="2.66667" fill="white" fill-opacity="0.2"/>
<rect id="Rectangle_7" x="50" y="2" width="10" height="2.66667" fill="white" fill-opacity="0.2"/>
<rect id="Rectangle_8" x="34" y="22" width="26" height="2.66667" fill="white" fill-opacity="0.2"/>
<rect id="Rectangle_9" x="34" y="8.66669" width="26" height="2.66667" fill="white" fill-opacity="0.2"/>
<rect id="Rectangle_10" x="34" y="55.3333" width="26" height="2.66667" fill="white" fill-opacity="0.2"/>
<rect id="Rectangle_11" y="22" width="10" height="2.66667" fill="white" fill-opacity="0.2"/>
<rect id="Rectangle_12" y="55.3333" width="10" height="2.66667" fill="white" fill-opacity="0.2"/>
<rect id="Rectangle_13" y="8.66669" width="10" height="2.66667" fill="white" fill-opacity="0.2"/>
<rect id="Rectangle_14" x="46" y="28.6667" width="14" height="2.66667" fill="white" fill-opacity="0.2"/>
<rect id="Rectangle_15" y="28.6667" width="14" height="2.66667" fill="white" fill-opacity="0.2"/>
<rect id="Rectangle_16" x="46" y="15.3333" width="14" height="2.66667" fill="white" fill-opacity="0.2"/>
<rect id="Rectangle_17" y="15.3333" width="14" height="2.66667" fill="white" fill-opacity="0.2"/>
<rect id="Rectangle_18" x="46" y="42" width="14" height="2.66667" fill="white" fill-opacity="0.2"/>
<rect id="Rectangle_19" y="42" width="14" height="2.66667" fill="white" fill-opacity="0.2"/>
<rect id="Rectangle_20" y="35.3333" width="26" height="2.66667" fill="white" fill-opacity="0.2"/>
<rect id="Rectangle_21" y="48.6667" width="26" height="2.66667" fill="white" fill-opacity="0.2"/>
<rect id="Rectangle_22" y="2" width="26" height="2.66667" fill="white" fill-opacity="0.2"/>
</g>
<g id="s">
<rect id="Rectangle_23" x="18" y="15.3333" width="24" height="2.66667" fill="white"/>
<rect id="Rectangle_24" x="18" y="28.6667" width="24" height="2.66667" fill="white"/>
<rect id="Rectangle_25" x="18" y="42" width="24" height="2.66667" fill="white"/>
<rect id="Rectangle_26" x="30" y="35.3333" width="16" height="2.66667" fill="white"/>
<rect id="Rectangle_27" x="14" y="22" width="16" height="2.66667" fill="white"/>
</g>
</g>
</g>
<g id="prevbutton">
<rect id="background" x="65" y="20" width="35" height="35" fill="#F36C3D"/>
<g id="icon">
<g id="Outline Icons">
<g id="Group">
<path id="Vector" d="M75.5 37.5L70.5 32.5L75.5 27.5" stroke="white" stroke-miterlimit="10" stroke-linecap="round" stroke-linejoin="round"/>
<path id="Vector_2" d="M70.5 32.5H93.5" stroke="white" stroke-miterlimit="10" stroke-linecap="round" stroke-linejoin="round"/>
</g>
</g>
</g>
<path id="Prev" d="M72.773 52V49.336H74.303C75.464 49.336 76.094 48.661 76.094 47.527C76.094 46.393 75.464 45.718 74.303 45.718H72.017V52H72.773ZM72.773 46.375H74.285C74.915 46.375 75.293 46.708 75.293 47.293V47.761C75.293 48.346 74.915 48.679 74.285 48.679H72.773V46.375ZM78.1695 49.318H79.1685L80.6985 52H81.5445L79.9425 49.282C80.9415 49.183 81.4905 48.535 81.4905 47.527C81.4905 46.393 80.8605 45.718 79.6995 45.718H77.4135V52H78.1695V49.318ZM78.1695 48.679V46.375H79.6815C80.3115 46.375 80.6895 46.708 80.6895 47.293V47.761C80.6895 48.346 80.3115 48.679 79.6815 48.679H78.1695ZM86.68 52V51.343H83.566V49.147H86.572V48.49H83.566V46.375H86.68V45.718H82.81V52H86.68ZM90.6095 52L92.4725 45.718H91.6985L90.8075 48.859L90.1325 51.235H90.0875L89.4125 48.859L88.5215 45.718H87.7205L89.5835 52H90.6095Z" fill="white"/>
</g>
<g id="nextbutton">
<rect id="background_2" x="105" y="20" width="35" height="35" fill="#F36C3D"/>
<g id="icon_2">
<g id="Outline Icons_2">
<g id="Group_2">
<path id="Vector_3" d="M128.5 27.5L133.5 32.5L128.5 37.5" stroke="white" stroke-miterlimit="10" stroke-linecap="round" stroke-linejoin="round"/>
<path id="Vector_4" d="M133.5 32.5H110.5" stroke="white" stroke-miterlimit="10" stroke-linecap="round" stroke-linejoin="round"/>
</g>
</g>
</g>
<path id="Next" d="M114.816 52H115.887V45.718H115.203V50.983H115.14L112.998 45.718H111.927V52H112.611V46.681H112.674L114.816 52ZM121.284 52V51.343H118.17V49.147H121.176V48.49H118.17V46.375H121.284V45.718H117.414V52H121.284ZM125.168 48.787L127.112 45.718H126.284L125.528 46.933L124.754 48.202H124.718L123.935 46.933L123.206 45.718H122.351L124.286 48.796L122.234 52H123.062L123.854 50.749L124.709 49.381H124.745L125.573 50.749L126.32 52H127.175L125.168 48.787ZM132.571 46.375V45.718H127.621V46.375H129.718V52H130.474V46.375H132.571Z" fill="white"/>
</g>
<g id="randombutton">
<rect id="background_3" x="145" y="20" width="35" height="35" fill="#F36C3D"/>
<g id="icon_3">
<g id="Outline Icons 1">
<g id="Outline Icons_3">
<g id="Group_3">
<path id="Vector_5" d="M150.927 31.199L153.714 35.35L156.919 31.512" stroke="white" stroke-miterlimit="10" stroke-linecap="round" stroke-linejoin="round"/>
<path id="Vector_6" d="M173.5 35.5L170.714 31.35L167.508 35.188" stroke="white" stroke-miterlimit="10" stroke-linecap="round" stroke-linejoin="round"/>
<path id="Vector_7" d="M170.677 31.387C171.511 35.795 168.404 40.116 164.168 41.116C161.214 41.815 158.252 40.878 156.237 38.892" stroke="white" stroke-miterlimit="10" stroke-linecap="round" stroke-linejoin="round"/>
<path id="Vector_8" d="M153.719 35.325C152.405 30.442 155.688 25.65 160.257 24.572C163.413 23.825 166.573 24.944 168.581 27.213" stroke="white" stroke-miterlimit="10" stroke-linecap="round" stroke-linejoin="round"/>
</g>
</g>
</g>
</g>
<path id="Random" d="M147.566 49.318H148.565L150.095 52H150.941L149.339 49.282C150.338 49.183 150.887 48.535 150.887 47.527C150.887 46.393 150.257 45.718 149.096 45.718H146.81V52H147.566V49.318ZM147.566 48.679V46.375H149.078C149.708 46.375 150.086 46.708 150.086 47.293V47.761C150.086 48.346 149.708 48.679 149.078 48.679H147.566ZM156.526 52L154.6 45.718H153.601L151.675 52H152.458L152.989 50.209H155.194L155.725 52H156.526ZM155.014 49.552H153.169L154.051 46.519H154.132L155.014 49.552ZM160.402 52H161.473V45.718H160.789V50.983H160.726L158.584 45.718H157.513V52H158.197V46.681H158.26L160.402 52ZM163.044 52H164.799C166.329 52 167.085 50.92 167.085 48.859C167.085 46.798 166.329 45.718 164.799 45.718H163.044V52ZM163.8 51.343V46.375H164.763C165.762 46.375 166.284 47.113 166.284 48.373V49.345C166.284 50.605 165.762 51.343 164.763 51.343H163.8ZM170.286 52.108C171.816 52.108 172.482 50.911 172.482 48.859C172.482 46.807 171.816 45.61 170.286 45.61C168.756 45.61 168.09 46.807 168.09 48.859C168.09 50.911 168.756 52.108 170.286 52.108ZM170.286 51.451C169.287 51.451 168.891 50.632 168.891 49.372V48.346C168.891 47.086 169.287 46.267 170.286 46.267C171.285 46.267 171.681 47.086 171.681 48.346V49.372C171.681 50.632 171.285 51.451 170.286 51.451ZM177.077 52H177.77V45.718H176.834L175.727 48.49H175.673L174.566 45.718H173.594V52H174.287V48.85V46.861H174.359L175.682 50.092L177.005 46.861H177.077V48.85V52Z" fill="white"/>
</g>
<g id="listbutton">
<rect id="background_4" x="185" y="20" width="35" height="35" fill="#F36C3D"/>
<g id="icon_4">
<g id="Outline Icons 1_2">
<g id="Outline Icons_4">
<g id="Group_4">
<g id="Group_5">
<path id="Vector_9" d="M210 26.5H195.043" stroke="white" stroke-miterlimit="10" stroke-linecap="round" stroke-linejoin="round"/>
</g>
<g id="Group_6">
<path id="Vector_10" d="M210 30.5H195.043" stroke="white" stroke-miterlimit="10" stroke-linecap="round" stroke-linejoin="round"/>
</g>
<g id="Group_7">
<path id="Vector_11" d="M210 34.5H195.043" stroke="white" stroke-miterlimit="10" stroke-linecap="round" stroke-linejoin="round"/>
</g>
<g id="Group_8">
<path id="Vector_12" d="M210 38.5H195.043" stroke="white" stroke-miterlimit="10" stroke-linecap="round" stroke-linejoin="round"/>
</g>
</g>
</g>
</g>
</g>
<path id="List" d="M197.022 52V51.343H194.043V45.718H193.287V52H197.022ZM202.248 52V51.397H200.682V46.321H202.248V45.718H198.36V46.321H199.926V51.397H198.36V52H202.248ZM205.682 52.108C207.077 52.108 207.878 51.406 207.878 50.245C207.878 49.426 207.473 48.742 206.24 48.526L205.565 48.409C204.674 48.256 204.386 47.896 204.386 47.338C204.386 46.627 204.863 46.258 205.709 46.258C206.492 46.258 206.942 46.573 207.293 47.032L207.824 46.573C207.401 45.97 206.717 45.61 205.718 45.61C204.44 45.61 203.621 46.204 203.621 47.356C203.621 48.148 204.008 48.859 205.241 49.066L205.943 49.183C206.798 49.327 207.113 49.651 207.113 50.263C207.113 51.019 206.618 51.46 205.709 51.46C204.953 51.46 204.44 51.163 203.954 50.551L203.405 51.001C203.873 51.649 204.557 52.108 205.682 52.108ZM213.571 46.375V45.718H208.621V46.375H210.718V52H211.474V46.375H213.571Z" fill="white"/>
</g>
<path id="Sidebar Webring" d="M91.576 14.144C93.436 14.144 94.504 13.208 94.504 11.66C94.504 10.568 93.964 9.656 92.32 9.368L91.42 9.212C90.232 9.008 89.848 8.528 89.848 7.784C89.848 6.836 90.484 6.344 91.612 6.344C92.656 6.344 93.256 6.764 93.724 7.376L94.432 6.764C93.868 5.96 92.956 5.48 91.624 5.48C89.92 5.48 88.828 6.272 88.828 7.808C88.828 8.864 89.344 9.812 90.988 10.088L91.924 10.244C93.064 10.436 93.484 10.868 93.484 11.684C93.484 12.692 92.824 13.28 91.612 13.28C90.604 13.28 89.92 12.884 89.272 12.068L88.54 12.668C89.164 13.532 90.076 14.144 91.576 14.144ZM101.387 14V13.196H99.2993V6.428H101.387V5.624H96.2033V6.428H98.2913V13.196H96.2033V14H101.387ZM103.531 14H105.871C107.911 14 108.919 12.56 108.919 9.812C108.919 7.064 107.911 5.624 105.871 5.624H103.531V14ZM104.539 13.124V6.5H105.823C107.155 6.5 107.851 7.484 107.851 9.164V10.46C107.851 12.14 107.155 13.124 105.823 13.124H104.539ZM115.826 14V13.124H111.674V10.196H115.682V9.32H111.674V6.5H115.826V5.624H110.666V14H115.826ZM117.837 14H121.041C122.337 14 123.297 12.944 123.297 11.588C123.297 10.424 122.613 9.836 121.677 9.62V9.584C122.445 9.344 122.985 8.78 122.985 7.784C122.985 6.476 122.109 5.624 120.681 5.624H117.837V14ZM118.845 13.124V10.088H120.741C121.665 10.088 122.229 10.52 122.229 11.36V11.852C122.229 12.704 121.665 13.124 120.741 13.124H118.845ZM118.845 9.26V6.5H120.573C121.413 6.5 121.929 6.884 121.929 7.652V8.12C121.929 8.888 121.413 9.26 120.573 9.26H118.845ZM130.817 14L128.249 5.624H126.917L124.349 14H125.393L126.101 11.612H129.041L129.749 14H130.817ZM128.801 10.736H126.341L127.517 6.692H127.625L128.801 10.736ZM133.26 10.424H134.592L136.632 14H137.76L135.624 10.376C136.956 10.244 137.688 9.38 137.688 8.036C137.688 6.524 136.848 5.624 135.3 5.624H132.252V14H133.26V10.424ZM133.26 9.572V6.5H135.276C136.116 6.5 136.62 6.944 136.62 7.724V8.348C136.62 9.128 136.116 9.572 135.276 9.572H133.26ZM148.095 14L149.115 8.996H149.211L150.231 14H151.683L152.342 5.624H151.467L151.119 10.424L150.939 12.956H150.843L149.739 7.808H148.611L147.507 12.956H147.411L147.231 10.424L146.883 5.624H145.983L146.643 14H148.095ZM158.998 14V13.124H154.846V10.196H158.854V9.32H154.846V6.5H158.998V5.624H153.838V14H158.998ZM161.009 14H164.213C165.509 14 166.469 12.944 166.469 11.588C166.469 10.424 165.785 9.836 164.849 9.62V9.584C165.617 9.344 166.157 8.78 166.157 7.784C166.157 6.476 165.281 5.624 163.853 5.624H161.009V14ZM162.017 13.124V10.088H163.913C164.837 10.088 165.401 10.52 165.401 11.36V11.852C165.401 12.704 164.837 13.124 163.913 13.124H162.017ZM162.017 9.26V6.5H163.745C164.585 6.5 165.101 6.884 165.101 7.652V8.12C165.101 8.888 164.585 9.26 163.745 9.26H162.017ZM169.236 10.424H170.568L172.608 14H173.736L171.6 10.376C172.932 10.244 173.664 9.38 173.664 8.036C173.664 6.524 172.824 5.624 171.276 5.624H168.228V14H169.236V10.424ZM169.236 9.572V6.5H171.252C172.092 6.5 172.596 6.944 172.596 7.724V8.348C172.596 9.128 172.092 9.572 171.252 9.572H169.236ZM180.536 14V13.196H178.448V6.428H180.536V5.624H175.352V6.428H177.44V13.196H175.352V14H180.536ZM186.351 14H187.779V5.624H186.867V12.644H186.783L183.927 5.624H182.499V14H183.411V6.908H183.495L186.351 14ZM194.062 14H194.998V9.86H192.298V10.664H194.062V11.528C194.062 12.56 193.414 13.292 192.334 13.292C190.966 13.292 190.474 12.104 190.474 10.424V9.128C190.474 7.448 191.086 6.356 192.43 6.356C193.438 6.356 193.834 6.968 194.134 7.712L194.998 7.316C194.638 6.404 193.966 5.48 192.394 5.48C190.378 5.48 189.406 7.016 189.406 9.872C189.406 12.608 190.294 14.144 192.106 14.144C193.258 14.144 193.726 13.532 194.002 12.884H194.062V14Z" fill="white"/>
</g>
</svg>
