<svg width="180" height="180" viewBox="0 0 180 180" fill="none" xmlns="http://www.w3.org/2000/svg">
<rect width="180" height="180" fill="#F36C3D"/>
<rect x="54" y="46" width="72" height="8" fill="white"/>
<rect x="54" y="86" width="72" height="8" fill="white"/>
<rect x="54" y="126" width="72" height="8" fill="white"/>
<rect x="90" y="106" width="48" height="8" fill="white"/>
<rect x="42" y="66" width="48" height="8" fill="white"/>
<rect x="42" y="26" width="48" height="8" fill="white" fill-opacity="0.2"/>
<rect x="90" y="6" width="48" height="8" fill="white" fill-opacity="0.2"/>
<rect x="90" y="146" width="48" height="8" fill="white" fill-opacity="0.2"/>
<rect x="42" y="166" width="48" height="8" fill="white" fill-opacity="0.2"/>
<rect x="150" y="106" width="30" height="8" fill="white" fill-opacity="0.2"/>
<rect x="150" y="146" width="30" height="8" fill="white" fill-opacity="0.2"/>
<rect x="150" y="6" width="30" height="8" fill="white" fill-opacity="0.2"/>
<rect x="102" y="66" width="78" height="8" fill="white" fill-opacity="0.2"/>
<rect x="102" y="26" width="78" height="8" fill="white" fill-opacity="0.2"/>
<rect x="102" y="166" width="78" height="8" fill="white" fill-opacity="0.2"/>
<rect y="66" width="30" height="8" fill="white" fill-opacity="0.2"/>
<rect y="166" width="30" height="8" fill="white" fill-opacity="0.2"/>
<rect y="26" width="30" height="8" fill="white" fill-opacity="0.2"/>
<rect x="138" y="86" width="42" height="8" fill="white" fill-opacity="0.2"/>
<rect y="86" width="42" height="8" fill="white" fill-opacity="0.2"/>
<rect x="138" y="46" width="42" height="8" fill="white" fill-opacity="0.2"/>
<rect y="46" width="42" height="8" fill="white" fill-opacity="0.2"/>
<rect x="138" y="126" width="42" height="8" fill="white" fill-opacity="0.2"/>
<rect y="126" width="42" height="8" fill="white" fill-opacity="0.2"/>
<rect y="106" width="78" height="8" fill="white" fill-opacity="0.2"/>
<rect y="146" width="78" height="8" fill="white" fill-opacity="0.2"/>
<rect y="6" width="78" height="8" fill="white" fill-opacity="0.2"/>
</svg>
