<?xml version="1.0" standalone="no"?>
<!DOCTYPE svg PUBLIC "-//W3C//DTD SVG 20010904//EN"
 "http://www.w3.org/TR/2001/REC-SVG-20010904/DTD/svg10.dtd">
<svg version="1.0" xmlns="http://www.w3.org/2000/svg"
 width="1800.000000pt" height="1800.000000pt" viewBox="0 0 1800.000000 1800.000000"
 preserveAspectRatio="xMidYMid meet">
<metadata>
Created by potrace 1.11, written by Peter Selinger 2001-2013
</metadata>
<g transform="translate(0.000000,1800.000000) scale(0.100000,-0.100000)"
fill="#000000" stroke="none">
<path d="M0 9000 l0 -9000 9000 0 9000 0 0 9000 0 9000 -9000 0 -9000 0 0
-9000z m12600 4000 l0 -400 -3600 0 -3600 0 0 400 0 400 3600 0 3600 0 0 -400z
m-3600 -2000 l0 -400 -2400 0 -2400 0 0 400 0 400 2400 0 2400 0 0 -400z
m3600 -2000 l0 -400 -3600 0 -3600 0 0 400 0 400 3600 0 3600 0 0 -400z m1200
-2000 l0 -400 -2400 0 -2400 0 0 400 0 400 2400 0 2400 0 0 -400z m-1200
-2000 l0 -400 -3600 0 -3600 0 0 400 0 400 3600 0 3600 0 0 -400z"/>
</g>
</svg>
